# xmcd CD database file
#
# Track frame offsets:
#	150
#	24594
#	78785
#	89584
#	104161
#	154353
#	227259
#
# Disc length: 3353 seconds
#
# Revision: 0
# Processed by: cddbd v1.5.2PL0 Copyright (c) Steve Scherf et al.
# Submitted via: CDex 1.51
#
DISCID=4c0d1707
DTITLE=Balthasar Brennenstuhl - jazz sotto lo mbrello
DYEAR=2003
DGENRE=Jazz
TTITLE0=Stonata
TTITLE1=Blus
TTITLE2=Scadenza
TTITLE3=En écoutant la Traviata
TTITLE4=Medley
TTITLE5=Sangoma Improvvisazione 1
TTITLE6=Imprivvisazione 2 Canzona
EXTD=YEAR: 2003
EXTT0=
EXTT1=
EXTT2=
EXTT3=
EXTT4=
EXTT5=
EXTT6=
PLAYORDER=
